<svg xmlns="http://www.w3.org/2000/svg" viewBox="0 0 200 200">
  <defs>
    <linearGradient id="g" x1="0%" y1="0%" x2="100%" y2="100%">
      <stop offset="0%" stop-color="#3b82f6"/>
      <stop offset="100%" stop-color="#1d4ed8"/>
    </linearGradient>
    <linearGradient id="b" x1="0%" y1="0%" x2="100%" y2="100%">
      <stop offset="0%" stop-color="#10b981"/>
      <stop offset="100%" stop-color="#059669"/>
    </linearGradient>
  </defs>
  <rect width="200" height="200" fill="#f8fafc" rx="44"/>
  <path d="M100 24 L164 50 L158 110 Q152 150 100 176 Q48 150 42 110 L36 50 Z" fill="url(#g)"/>
  <path d="M100 38 L152 58 L147 106 Q142 140 100 160 Q58 140 53 106 L48 58 Z" fill="white"/>
  <circle cx="100" cy="98" r="34" fill="url(#b)"/>
  <path d="M100 70 Q114 84 128 80 Q118 94 122 110 Q108 105 100 118 Q92 105 78 110 Q82 94 72 80 Q86 84 100 70" fill="white" opacity="0.2"/>
</svg>
